<mxfile host="app.diagrams.net" modified="2024-05-06T02:16:38.141Z" agent="Mozilla/5.0 (Macintosh; Intel Mac OS X 10_15_7) AppleWebKit/537.36 (KHTML, like Gecko) Chrome/124.0.0.0 Safari/537.36 Edg/124.0.0.0" etag="PcR0727l-TOnI8REFr-j" version="24.2.8" type="github">
  <diagram name="第 1 页" id="x6DU5e6zfSBmo6PIq0Tz">
    <mxGraphModel dx="906" dy="557" grid="1" gridSize="10" guides="1" tooltips="1" connect="1" arrows="1" fold="1" page="1" pageScale="1" pageWidth="827" pageHeight="1169" math="0" shadow="0">
      <root>
        <mxCell id="0" />
        <mxCell id="1" parent="0" />
        <mxCell id="p2-TfMb37SsXBgMvfIKl-4" value="" style="edgeStyle=orthogonalEdgeStyle;rounded=0;orthogonalLoop=1;jettySize=auto;html=1;" edge="1" parent="1" source="p2-TfMb37SsXBgMvfIKl-1" target="p2-TfMb37SsXBgMvfIKl-3">
          <mxGeometry relative="1" as="geometry" />
        </mxCell>
        <mxCell id="p2-TfMb37SsXBgMvfIKl-1" value="&lt;font style=&quot;font-size: 16px;&quot;&gt;请求登陆&lt;/font&gt;" style="rounded=1;whiteSpace=wrap;html=1;fillColor=#fff2cc;strokeColor=#d6b656;" vertex="1" parent="1">
          <mxGeometry x="360" y="160" width="120" height="60" as="geometry" />
        </mxCell>
        <mxCell id="p2-TfMb37SsXBgMvfIKl-2" value="&lt;font style=&quot;font-size: 16px;&quot;&gt;跳转页面&lt;/font&gt;" style="rounded=1;whiteSpace=wrap;html=1;fillColor=#e1d5e7;strokeColor=#9673a6;" vertex="1" parent="1">
          <mxGeometry x="360" y="400" width="120" height="60" as="geometry" />
        </mxCell>
        <mxCell id="p2-TfMb37SsXBgMvfIKl-5" value="" style="edgeStyle=orthogonalEdgeStyle;rounded=0;orthogonalLoop=1;jettySize=auto;html=1;" edge="1" parent="1" source="p2-TfMb37SsXBgMvfIKl-3" target="p2-TfMb37SsXBgMvfIKl-2">
          <mxGeometry relative="1" as="geometry" />
        </mxCell>
        <mxCell id="p2-TfMb37SsXBgMvfIKl-8" value="" style="edgeStyle=orthogonalEdgeStyle;rounded=0;orthogonalLoop=1;jettySize=auto;html=1;" edge="1" parent="1" source="p2-TfMb37SsXBgMvfIKl-3" target="p2-TfMb37SsXBgMvfIKl-7">
          <mxGeometry relative="1" as="geometry" />
        </mxCell>
        <mxCell id="p2-TfMb37SsXBgMvfIKl-3" value="&lt;font size=&quot;3&quot;&gt;账号存在&lt;/font&gt;" style="rhombus;whiteSpace=wrap;html=1;fillColor=#dae8fc;strokeColor=#6c8ebf;" vertex="1" parent="1">
          <mxGeometry x="370" y="260" width="100" height="80" as="geometry" />
        </mxCell>
        <mxCell id="p2-TfMb37SsXBgMvfIKl-6" value="Yes" style="text;html=1;align=center;verticalAlign=middle;resizable=0;points=[];autosize=1;strokeColor=none;fillColor=none;" vertex="1" parent="1">
          <mxGeometry x="425" y="340" width="40" height="30" as="geometry" />
        </mxCell>
        <mxCell id="p2-TfMb37SsXBgMvfIKl-11" style="edgeStyle=orthogonalEdgeStyle;rounded=0;orthogonalLoop=1;jettySize=auto;html=1;entryX=0;entryY=0.5;entryDx=0;entryDy=0;" edge="1" parent="1" source="p2-TfMb37SsXBgMvfIKl-7" target="p2-TfMb37SsXBgMvfIKl-2">
          <mxGeometry relative="1" as="geometry">
            <Array as="points">
              <mxPoint x="250" y="430" />
            </Array>
          </mxGeometry>
        </mxCell>
        <mxCell id="p2-TfMb37SsXBgMvfIKl-7" value="&lt;font style=&quot;font-size: 16px;&quot;&gt;邮箱注册&lt;/font&gt;" style="rounded=1;whiteSpace=wrap;html=1;fillColor=#fff2cc;strokeColor=#d6b656;" vertex="1" parent="1">
          <mxGeometry x="190" y="270" width="120" height="60" as="geometry" />
        </mxCell>
        <mxCell id="p2-TfMb37SsXBgMvfIKl-10" value="No" style="text;html=1;align=center;verticalAlign=middle;resizable=0;points=[];autosize=1;strokeColor=none;fillColor=none;" vertex="1" parent="1">
          <mxGeometry x="330" y="270" width="40" height="30" as="geometry" />
        </mxCell>
      </root>
    </mxGraphModel>
  </diagram>
</mxfile>
